<svg width="32" height="32" xmlns="http://www.w3.org/2000/svg">
  <defs>
    <linearGradient id="gradient" x1="0%" y1="0%" x2="100%" y2="100%">
      <stop offset="0%" style="stop-color:#0071e3;stop-opacity:1" />
      <stop offset="100%" style="stop-color:#0284ff;stop-opacity:1" />
    </linearGradient>
  </defs>
  <rect width="32" height="32" rx="8" fill="url(#gradient)"/>
  <path d="M10.2,22.5c-0.4,0-0.7-0.1-0.9-0.4c-0.2-0.3-0.3-0.7-0.1-1.2l5.6-14.7c0.1-0.3,0.3-0.5,0.5-0.7c0.2-0.2,0.5-0.2,0.8-0.2 c0.3,0,0.6,0.1,0.8,0.2c0.2,0.2,0.4,0.4,0.5,0.7l5.6,14.7c0.1,0.5,0.1,0.9-0.1,1.2c-0.2,0.3-0.5,0.4-0.9,0.4h-1.8 c-0.3,0-0.6-0.1-0.7-0.2c-0.2-0.1-0.3-0.3-0.4-0.5l-0.9-2.4h-5.1l-0.9,2.4c-0.1,0.2-0.2,0.4-0.4,0.5c-0.2,0.1-0.4,0.2-0.7,0.2 H10.2z M16.1,9.6L13.8,16h4.5L16.1,9.6z" fill="white"/>
</svg> 